<svg width="22" height="22" viewBox="0 0 22 22" fill="none" xmlns="http://www.w3.org/2000/svg">
<path fill-rule="evenodd" clip-rule="evenodd" d="M0 11C0 4.92487 4.92487 0 11 0C17.0722 0.00707187 21.9929 4.9278 22 11C22 17.0751 17.0751 22 11 22C4.92487 22 0 17.0751 0 11ZM11.0752 16.0316L17.3497 7.51667C17.5619 7.25412 17.6125 6.89624 17.4817 6.58512C17.3508 6.27401 17.0595 6.05999 16.7235 6.02803C16.3875 5.99608 16.0611 6.15137 15.8739 6.43225L10.1658 14.179L6.4295 11.1897C6.03411 10.8733 5.45708 10.9374 5.14067 11.3327C4.82425 11.7281 4.88828 12.3052 5.28367 12.6216L9.76433 16.2039C9.96021 16.357 10.2094 16.425 10.4559 16.3926C10.7024 16.3602 10.9255 16.2301 11.0752 16.0316Z" fill="#2472C1"/>
</svg>
