<svg width="29" height="28" viewBox="0 0 29 28" fill="none" xmlns="http://www.w3.org/2000/svg">
<path d="M0 14C0 6.26801 6.30626 0 14.0382 0C21.7702 0 28.0765 6.26801 28.0765 14C28.0765 21.732 21.7702 28 14.0382 28C6.30626 28 0 21.732 0 14Z" fill="white"/>
<g clip-path="url(#clip0_1568_20316)">
<path d="M13.9255 10.4733C13.9255 10.7138 13.7126 10.9093 13.4503 10.9093C13.1879 10.9093 12.9751 10.7138 12.9751 10.4733V8.95772C12.9751 8.71721 13.1879 8.5217 13.4503 8.5217C13.7126 8.5217 13.9255 8.71721 13.9255 8.95772V10.4733ZM18.2017 16.9552C18.1184 16.9552 18.0368 16.9352 17.9649 16.8967L16.5361 16.1386C16.3085 16.0181 16.2312 15.7516 16.3619 15.5426C16.4931 15.3336 16.7837 15.2621 17.0107 15.3826L18.4396 16.1406C18.6263 16.2391 18.7166 16.4406 18.6611 16.6316C18.605 16.8227 18.4172 16.9552 18.2017 16.9552ZM8.46098 16.1411L9.88984 15.3831H9.89038C9.99925 15.3251 10.1288 15.3096 10.2507 15.3391C10.3721 15.3691 10.4766 15.4421 10.5392 15.5426C10.6024 15.6431 10.6192 15.7621 10.5866 15.8741C10.5539 15.9856 10.4744 16.0811 10.365 16.1391L8.93618 16.8967C8.82731 16.9547 8.69722 16.9702 8.57583 16.9407C8.4539 16.9107 8.34994 16.8377 8.28734 16.7372C8.2242 16.6371 8.20732 16.5176 8.23998 16.4061C8.2721 16.2941 8.35157 16.1986 8.46098 16.1411ZM21.7627 18.6588C21.7953 18.6358 21.8274 18.6133 21.8596 18.5903C21.889 18.5633 21.914 18.5332 21.9352 18.5002L21.9363 18.4987V18.4982C21.963 18.4537 21.9809 18.4047 21.9891 18.3537C21.9913 18.3407 21.994 18.3277 21.9946 18.3147C21.9962 18.3037 22 18.2927 22 18.2812V9.71576C22 9.55975 21.9096 9.41574 21.7627 9.33824L13.6876 5.055C13.6762 5.049 13.6636 5.0465 13.6522 5.0415C13.6397 5.036 13.6272 5.0315 13.6136 5.027C13.508 4.991 13.3915 4.991 13.2864 5.027C13.2734 5.0315 13.2608 5.036 13.2483 5.0415C13.2369 5.0465 13.2244 5.049 13.2129 5.055L5.13787 9.33774L5.13733 9.33724C4.99036 9.41524 4.9 9.55925 4.9 9.71526V18.2807C4.9 18.2927 4.90381 18.3037 4.9049 18.3152C4.90599 18.3287 4.90816 18.3412 4.91034 18.3542C4.91851 18.4047 4.93647 18.4537 4.96314 18.4987V18.4992L4.96423 18.5007C4.98491 18.5338 5.0105 18.5638 5.03989 18.5908C5.07255 18.6138 5.10467 18.6363 5.13678 18.6598L13.2119 22.9425V22.942C13.3588 23.02 13.5401 23.02 13.6871 22.942L21.7627 18.6588ZM13.9249 6.30557V6.18857L20.575 9.71576L13.9249 13.243V13.1259C13.9249 12.8849 13.7121 12.6894 13.4497 12.6894C13.1874 12.6894 12.9745 12.8849 12.9745 13.1259V13.243L6.3245 9.71576L12.9751 6.18907V6.30607C12.9751 6.54709 13.1879 6.7421 13.4503 6.7421C13.7126 6.7421 13.9249 6.54709 13.9249 6.30557ZM21.0502 10.4718V17.5252L20.9402 17.4667H20.9397C20.8308 17.4087 20.7007 17.3932 20.5793 17.4232C20.4574 17.4532 20.3534 17.5262 20.2908 17.6267C20.2277 17.7267 20.2108 17.8462 20.2435 17.9577C20.2761 18.0697 20.3556 18.1652 20.465 18.2227L20.5755 18.2812L13.9255 21.8084V14.754L14.0354 14.8125C14.1443 14.8705 14.2744 14.886 14.3958 14.8565C14.5177 14.8265 14.6217 14.7535 14.6843 14.653C14.7474 14.5525 14.7643 14.4335 14.7316 14.3215C14.699 14.21 14.6195 14.1145 14.5101 14.0565L14.4001 13.998L21.0502 10.4718ZM12.9751 21.8079L6.32504 18.2807L6.43554 18.2222C6.54441 18.1642 6.62442 18.0692 6.65708 17.9572C6.68974 17.8457 6.67287 17.7262 6.60973 17.6262C6.54659 17.5257 6.44316 17.4527 6.32123 17.4227C6.19985 17.3927 6.06976 17.4082 5.96089 17.4662L5.85039 17.5247V10.4713L12.5004 13.998L12.3905 14.0565C12.1635 14.177 12.0856 14.4435 12.2168 14.6525C12.348 14.8615 12.6381 14.9331 12.8657 14.8125L12.9756 14.754V21.8079H12.9751Z" fill="#6B6B6B"/>
</g>
<path d="M14.0382 27.4C6.6355 27.4 0.6 21.3985 0.6 14H-0.6C-0.6 22.0655 5.97702 28.6 14.0382 28.6V27.4ZM27.4765 14C27.4765 21.3985 21.441 27.4 14.0382 27.4V28.6C22.0995 28.6 28.6765 22.0655 28.6765 14H27.4765ZM14.0382 0.6C21.441 0.6 27.4765 6.60151 27.4765 14H28.6765C28.6765 5.93451 22.0995 -0.6 14.0382 -0.6V0.6ZM14.0382 -0.6C5.97702 -0.6 -0.6 5.93451 -0.6 14H0.6C0.6 6.60151 6.6355 0.6 14.0382 0.6V-0.6Z" fill="#D1D1D1"/>
<defs>
<clipPath id="clip0_1568_20316">
<rect width="17.1" height="18" fill="white" transform="matrix(-1 0 0 1 22 5)"/>
</clipPath>
</defs>
</svg>
