<svg width="57" height="28" viewBox="0 0 57 28" fill="none" xmlns="http://www.w3.org/2000/svg">
<rect x="0.376172" y="0.3" width="56.2511" height="27.4" rx="13.7" fill="white"/>
<path d="M8.51461 11.9835V8.1957C8.51461 8.06081 8.59417 7.93856 8.71748 7.88369L14.8631 5.1523C14.9515 5.11297 15.0523 5.11297 15.1404 5.1523L21.286 7.88369C21.4092 7.93856 21.4887 8.06081 21.4887 8.1957V11.9835C24.3113 13.0136 25.9272 14.6103 25.9272 16.39C25.9272 19.3172 21.5445 21.6363 15.8102 21.8372L16.2673 22.2943C16.4008 22.4279 16.4008 22.6437 16.2673 22.7771C16.2008 22.8437 16.1133 22.8772 16.026 22.8772C15.9387 22.8772 15.8512 22.8437 15.7846 22.7772L14.7603 21.7529C14.6268 21.6194 14.6268 21.4036 14.7603 21.2702L15.7846 20.2459C15.9181 20.1124 16.1339 20.1124 16.2673 20.2459C16.4008 20.3795 16.4008 20.5953 16.2673 20.7287L15.8443 21.1516C21.0199 20.944 25.2446 18.8487 25.2446 16.39C25.2446 14.9816 23.8503 13.6256 21.4889 12.7109V16.39C21.4889 16.5249 21.4094 16.6472 21.286 16.702L15.1404 19.4334C15.0964 19.4529 15.049 19.4629 15.0019 19.4629C14.9548 19.4629 14.9074 19.4529 14.8633 19.4334L8.71767 16.702C8.59436 16.6472 8.5148 16.5249 8.5148 16.39V12.7109C6.15378 13.6256 4.75913 14.9814 4.75913 16.39C4.75913 18.6506 8.21879 20.6198 12.9857 21.0728C13.1735 21.0905 13.3111 21.2576 13.2933 21.445C13.2765 21.6218 13.1278 21.754 12.9535 21.754C12.943 21.754 12.932 21.7537 12.9208 21.7526C7.71356 21.2578 4.07612 19.0529 4.07612 16.3901C4.07612 14.6106 5.69209 13.0138 8.51464 11.9836L8.51461 11.9835ZM15.0017 5.83788L9.69652 8.1957L15.0017 10.5535L20.3068 8.1957L15.0017 5.83788ZM20.8059 8.7211L15.3431 11.149V18.5964L20.8059 16.1682V8.7211ZM14.6602 18.5959V11.1485L9.19746 8.72059V16.1679L14.6602 18.5959Z" fill="#6B6B6B"/>
<path d="M30.8972 17.67C30.3639 17.67 29.9106 17.5667 29.5372 17.36C29.1706 17.1533 28.8906 16.8733 28.6972 16.52C28.5039 16.1667 28.4072 15.78 28.4072 15.36H29.1372C29.1372 15.8667 29.2939 16.27 29.6072 16.57C29.9206 16.8633 30.3506 17.01 30.8972 17.01C31.2506 17.01 31.5572 16.9433 31.8172 16.81C32.0839 16.6767 32.2872 16.4867 32.4272 16.24C32.5739 15.9933 32.6472 15.7067 32.6472 15.38C32.6472 14.88 32.4906 14.4767 32.1772 14.17C31.8639 13.8633 31.4406 13.71 30.9072 13.71C30.6939 13.71 30.5106 13.7367 30.3572 13.79C30.2039 13.8367 30.0672 13.8967 29.9472 13.97L29.5372 13.27L32.4472 11.01L32.3672 10.85H28.6972V10.2H33.0672V11.28L30.4872 13.29L29.9972 13.3C30.1172 13.2467 30.2539 13.2033 30.4072 13.17C30.5606 13.13 30.7372 13.11 30.9372 13.11C31.4506 13.11 31.8872 13.21 32.2472 13.41C32.6139 13.61 32.8939 13.8767 33.0872 14.21C33.2806 14.5433 33.3772 14.91 33.3772 15.31V15.45C33.3772 15.8367 33.2806 16.2 33.0872 16.54C32.8939 16.88 32.6139 17.1533 32.2472 17.36C31.8806 17.5667 31.4306 17.67 30.8972 17.67ZM37.471 17.69C36.9843 17.69 36.571 17.6067 36.231 17.44C35.891 17.2667 35.6143 17.0267 35.401 16.72C35.1943 16.4133 35.041 16.05 34.941 15.63C34.841 15.2033 34.791 14.74 34.791 14.24V13.82C34.791 12.6333 35.0677 11.7267 35.621 11.1C36.1743 10.4667 37.001 10.15 38.101 10.15C38.3277 10.15 38.531 10.1567 38.711 10.17C38.891 10.1833 39.0843 10.2033 39.291 10.23V10.88C39.0843 10.8467 38.8843 10.8233 38.691 10.81C38.4977 10.7967 38.2877 10.79 38.061 10.79C37.4343 10.79 36.931 10.9133 36.551 11.16C36.171 11.4 35.8943 11.75 35.721 12.21C35.5543 12.67 35.471 13.2267 35.471 13.88V14.59L35.271 15.18C35.2777 14.6733 35.3743 14.2433 35.561 13.89C35.7543 13.5367 36.0243 13.2667 36.371 13.08C36.7177 12.8933 37.1243 12.8 37.591 12.8C38.111 12.8 38.551 12.9067 38.911 13.12C39.271 13.3333 39.541 13.6233 39.721 13.99C39.9077 14.3567 40.001 14.7667 40.001 15.22C40.001 15.68 39.9043 16.0967 39.711 16.47C39.5243 16.8433 39.2443 17.14 38.871 17.36C38.4977 17.58 38.031 17.69 37.471 17.69ZM37.471 17.03C37.871 17.03 38.2043 16.95 38.471 16.79C38.7443 16.63 38.9477 16.4133 39.081 16.14C39.2143 15.8667 39.281 15.56 39.281 15.22C39.281 14.88 39.2143 14.5767 39.081 14.31C38.9543 14.0367 38.7577 13.8233 38.491 13.67C38.231 13.51 37.9077 13.43 37.521 13.43C37.141 13.43 36.8077 13.5033 36.521 13.65C36.241 13.7967 36.021 14.0067 35.861 14.28C35.7077 14.5467 35.631 14.8633 35.631 15.23C35.631 15.5433 35.6977 15.8367 35.831 16.11C35.9643 16.3833 36.1677 16.6067 36.441 16.78C36.7143 16.9467 37.0577 17.03 37.471 17.03ZM44.244 17.67C43.7306 17.67 43.2906 17.58 42.924 17.4C42.5573 17.22 42.2573 16.97 42.024 16.65C41.7906 16.3233 41.6173 15.9433 41.504 15.51C41.3973 15.07 41.344 14.5967 41.344 14.09V13.62C41.344 12.9067 41.4473 12.28 41.654 11.74C41.8673 11.2 42.1873 10.7767 42.614 10.47C43.0473 10.1633 43.5906 10.01 44.244 10.01C44.8973 10.01 45.4373 10.1633 45.864 10.47C46.2906 10.7767 46.6073 11.2 46.814 11.74C47.0273 12.28 47.134 12.9067 47.134 13.62V14.09C47.134 14.5967 47.0773 15.07 46.964 15.51C46.8573 15.9433 46.6873 16.3233 46.454 16.65C46.2206 16.97 45.9206 17.22 45.554 17.4C45.1873 17.58 44.7506 17.67 44.244 17.67ZM44.244 16.99C44.964 16.99 45.4973 16.7367 45.844 16.23C46.1973 15.7233 46.374 14.9333 46.374 13.86C46.374 12.74 46.194 11.9333 45.834 11.44C45.4806 10.94 44.9506 10.69 44.244 10.69C43.5306 10.69 42.994 10.94 42.634 11.44C42.2806 11.9333 42.104 12.7333 42.104 13.84C42.104 14.92 42.2773 15.7167 42.624 16.23C42.9773 16.7367 43.5173 16.99 44.244 16.99ZM50.1255 14.602C49.8175 14.602 49.5535 14.548 49.3335 14.44C49.1135 14.332 48.9335 14.182 48.7935 13.99C48.6535 13.794 48.5495 13.566 48.4815 13.306C48.4175 13.042 48.3855 12.758 48.3855 12.454V12.172C48.3855 11.744 48.4475 11.368 48.5715 11.044C48.6995 10.72 48.8915 10.466 49.1475 10.282C49.4075 10.098 49.7335 10.006 50.1255 10.006C50.5175 10.006 50.8415 10.098 51.0975 10.282C51.3535 10.466 51.5435 10.72 51.6675 11.044C51.7955 11.368 51.8595 11.744 51.8595 12.172V12.454C51.8595 12.758 51.8255 13.042 51.7575 13.306C51.6935 13.566 51.5915 13.794 51.4515 13.99C51.3115 14.182 51.1315 14.332 50.9115 14.44C50.6915 14.548 50.4295 14.602 50.1255 14.602ZM50.1255 14.194C50.5575 14.194 50.8775 14.042 51.0855 13.738C51.2975 13.434 51.4035 12.96 51.4035 12.316C51.4035 11.644 51.2955 11.16 51.0795 10.864C50.8675 10.564 50.5495 10.414 50.1255 10.414C49.6975 10.414 49.3755 10.564 49.1595 10.864C48.9475 11.16 48.8415 11.64 48.8415 12.304C48.8415 12.952 48.9455 13.43 49.1535 13.738C49.3655 14.042 49.6895 14.194 50.1255 14.194Z" fill="#6B6B6B"/>
<rect x="0.376172" y="0.3" width="56.2511" height="27.4" rx="13.7" stroke="#D1D1D1" stroke-width="0.6"/>
</svg>
