<svg width="180" height="180" viewBox="0 0 180 180" fill="none" xmlns="http://www.w3.org/2000/svg">
<path d="M89.5 177C137.825 177 177 137.825 177 89.5C177 41.1751 137.825 2 89.5 2C41.1751 2 2 41.1751 2 89.5C2 137.825 41.1751 177 89.5 177Z" fill="#EAF2FB"/>
<path fill-rule="evenodd" clip-rule="evenodd" d="M126.462 40.3963C126.972 38.186 126.939 36.0574 127 33.8154C127.012 33.3776 126.689 33.0136 126.28 33.0004C125.87 32.9872 125.529 33.3327 125.516 33.7706C125.459 35.8965 125.505 37.9196 125.022 40.0191C124.924 40.4438 125.167 40.8737 125.565 40.9766C125.962 41.0821 126.365 40.821 126.462 40.3963Z" fill="#103356"/>
<path fill-rule="evenodd" clip-rule="evenodd" d="M131.323 44.8C135.006 41.5462 138.476 37.3606 140.901 33.1343C141.112 32.7652 140.975 32.2992 140.593 32.0955C140.212 31.8919 139.73 32.0243 139.519 32.3934C137.174 36.4797 133.818 40.5278 130.257 43.6721C129.935 43.9573 129.913 44.441 130.207 44.7516C130.501 45.0622 131.001 45.0851 131.323 44.8Z" fill="#103356"/>
<path fill-rule="evenodd" clip-rule="evenodd" d="M131.719 48.8101C135.381 49.4621 139.156 48.3497 142.485 46.7768C142.92 46.5698 143.118 46.0229 142.928 45.5563C142.738 45.0866 142.231 44.8734 141.796 45.0773C138.764 46.5111 135.334 47.5741 131.999 46.9808C131.531 46.8974 131.089 47.2404 131.012 47.744C130.934 48.2477 131.252 48.7267 131.719 48.8101Z" fill="#103356"/>
<g filter="url(#filter0_f_2336_20997)">
<ellipse cx="89.022" cy="136.89" rx="48.022" ry="10.1099" fill="#6B6B6B" fill-opacity="0.39"/>
</g>
<path d="M24.6008 134.879L24.6006 134.879C24.1238 134.725 23.9001 134.319 23.8672 133.864C23.8361 133.451 23.977 132.967 24.0585 132.746C24.2198 132.307 24.4197 131.885 24.6512 131.484C22.793 129.03 19.5013 128.447 16.9489 130.155L16.9486 130.156C16.6393 130.362 16.2247 130.276 16.0192 129.969L16.0183 129.968L16.0183 129.968C15.8154 129.661 15.8956 129.244 16.2046 129.038M24.6008 134.879L41.5372 135.036M24.6008 134.879C25.1382 135.052 25.5668 134.969 25.8856 134.739C26.1886 134.522 26.3749 134.171 26.4561 133.768L26.4562 133.768C26.5335 133.384 26.5156 132.933 26.4545 132.517C26.4016 132.158 26.314 131.809 26.2156 131.532C26.4734 131.174 26.7618 130.838 27.0764 130.528C29.6154 128.023 33.9969 128.06 37.834 130.669C38.4644 131.098 39.0186 131.85 39.5061 132.825C39.9916 133.796 40.3995 134.966 40.7494 136.201L40.7494 136.201C41.6974 139.548 42.1561 143.33 42.3732 145.12C42.4058 145.388 42.4329 145.612 42.4555 145.783L42.4555 145.784C42.4782 145.952 42.5058 146.088 42.5318 146.189C42.5447 146.24 42.5576 146.283 42.57 146.318C42.5796 146.346 42.5952 146.388 42.6175 146.423M24.6008 134.879L42.7033 145.75C42.7463 146.07 42.8065 146.255 42.8292 146.29M16.2046 129.038C16.2046 129.038 16.2047 129.038 16.2047 129.038L16.3435 129.246L16.2044 129.038C16.2045 129.038 16.2045 129.038 16.2046 129.038ZM16.2046 129.038C19.2352 127.009 23.1187 127.598 25.4448 130.332C25.6615 130.065 25.8933 129.811 26.1373 129.57L26.1373 129.57C29.1543 126.592 34.2504 126.61 38.5839 129.557L38.5839 129.557C39.291 130.038 39.9013 130.805 40.4257 131.734C40.9514 132.665 41.3996 133.775 41.7755 134.961M41.7755 134.961L41.5372 135.036M41.7755 134.961C41.7755 134.961 41.7755 134.961 41.7755 134.961L41.5372 135.036M41.7755 134.961C42.4641 137.133 42.9322 139.578 43.2486 141.612M41.5372 135.036C42.2894 137.409 42.7778 140.116 43.0924 142.25C43.142 142.037 43.1942 141.824 43.2486 141.612M43.2486 141.612C43.4766 140.724 43.7445 139.848 44.0351 138.972L44.0351 138.972C44.1613 138.592 44.2869 138.21 44.4129 137.827C45.9153 133.261 47.4725 128.528 50.5707 124.716L50.5713 124.716C50.8057 124.429 51.2275 124.385 51.5138 124.622M43.2486 141.612C43.283 141.834 43.3157 142.05 43.3466 142.261C43.6003 141.178 43.9188 140.117 44.2724 139.051L51.5138 124.622M51.5138 124.622C51.5136 124.622 51.5134 124.622 51.5132 124.622L51.3549 124.815M51.5138 124.622L50.7647 124.874C50.9124 124.694 51.1765 124.667 51.3549 124.815M51.5138 124.622C51.5139 124.622 51.5141 124.622 51.5143 124.622L51.3549 124.815M51.5138 124.622C51.8006 124.857 51.8408 125.28 51.6087 125.566L51.6086 125.566C48.6571 129.198 47.1735 133.715 45.7086 138.174C45.5744 138.583 45.4404 138.991 45.3054 139.398L45.3054 139.398C44.8028 140.912 44.3756 142.409 44.1113 143.972L44.1112 143.973C44.1008 144.033 44.0905 144.093 44.0801 144.153C44.0096 144.562 43.9405 144.962 43.8923 145.368M51.3549 124.815C51.5349 124.962 51.5607 125.229 51.4146 125.408C48.4324 129.078 46.9348 133.639 45.473 138.09C45.3381 138.501 45.2035 138.911 45.0681 139.319C44.5635 140.84 44.132 142.35 43.8648 143.931C43.8545 143.99 43.8442 144.05 43.8339 144.11C43.7631 144.52 43.6925 144.929 43.6435 145.343M43.8923 145.368C43.8921 145.365 43.8924 145.366 43.8918 145.371L43.6435 145.343M43.8923 145.368C43.8921 145.369 43.8919 145.371 43.8917 145.372L43.6435 145.343M43.8923 145.368C43.8924 145.369 43.8925 145.371 43.8929 145.374C43.8941 145.384 43.8966 145.398 43.901 145.418C43.9046 145.434 43.9086 145.45 43.9134 145.469C43.9147 145.475 43.916 145.48 43.9175 145.486C43.9237 145.512 43.9308 145.541 43.9368 145.572L43.9373 145.575C43.9643 145.721 43.9848 145.884 43.972 146.02L43.9718 146.022C43.9465 146.271 43.8305 146.463 43.6633 146.589L43.6622 146.59C43.5397 146.681 43.3797 146.746 43.1766 146.742L43.1739 146.742C43.0285 146.738 42.7861 146.693 42.6175 146.423M43.6435 145.343C43.6375 145.395 43.6539 145.461 43.6709 145.53C43.6782 145.56 43.6856 145.59 43.6914 145.62C43.7176 145.762 43.7325 145.896 43.7231 145.996C43.7047 146.178 43.6234 146.306 43.5128 146.39C43.4309 146.451 43.3242 146.495 43.1811 146.492C43.0821 146.49 42.9369 146.463 42.8292 146.29M42.6175 146.423C42.618 146.424 42.6185 146.425 42.619 146.425L42.8292 146.29M42.6175 146.423C42.6173 146.423 42.6171 146.422 42.6168 146.422L42.8292 146.29M25.6069 130.529C25.5532 130.596 25.5004 130.664 25.4488 130.733C25.3957 130.665 25.3417 130.598 25.2868 130.533L25.6069 130.529Z" fill="#69A5E3" stroke="#69A5E3" stroke-width="0.5"/>
<circle cx="89.4451" cy="84.4451" r="52.4451" fill="#103356"/>
<path d="M77.9487 100.372C76.4755 101.839 74.0921 101.831 72.6278 100.358C71.161 98.8847 71.1692 96.5013 72.6423 95.037C74.4318 93.2515 76.5777 91.8098 78.9655 90.8244C81.2737 89.8701 83.7864 89.3431 86.397 89.3431C89.0094 89.3431 91.5202 89.8702 93.8285 90.8244C96.2163 91.8122 98.3623 93.2538 100.152 95.037C101.625 96.5015 101.633 98.8852 100.166 100.358C98.7017 101.831 96.318 101.839 94.8453 100.372C93.737 99.2684 92.4223 98.3805 90.968 97.7808C89.5782 97.2058 88.0344 96.889 86.395 96.889C84.7552 96.889 83.2114 97.2058 81.8221 97.7808C80.3678 98.381 79.0532 99.2684 77.9447 100.372H77.9487ZM86.399 104.558C88.7634 104.558 90.6784 106.475 90.6784 108.837C90.6784 111.202 88.7615 113.117 86.399 113.117C84.0346 113.117 82.1196 111.2 82.1196 108.837C82.1196 106.473 84.0364 104.558 86.399 104.558ZM116.448 72.9174C118.044 74.253 118.255 76.6281 116.919 78.2237C115.584 79.8194 113.208 80.0301 111.613 78.6946C108.131 75.7778 104.146 73.4571 99.8142 71.8841C95.6471 70.3718 91.1305 69.5462 86.3986 69.5462C81.6648 69.5462 77.148 70.3712 72.983 71.8841C68.6494 73.4571 64.666 75.7803 61.1843 78.6946C59.5887 80.0302 57.2135 79.8175 55.878 78.2237C54.5424 76.6281 54.7551 74.2529 56.3489 72.9174C60.4824 69.4567 65.2327 66.6921 70.418 64.8086C75.4245 62.9921 80.8079 62 86.3982 62C91.9879 62 97.3718 62.9916 102.378 64.8086C107.564 66.6921 112.314 69.4547 116.448 72.9174H116.448ZM69.6946 89.8115C68.1318 91.1868 65.7485 91.0347 64.3737 89.472C62.9984 87.9092 63.1505 85.5259 64.7133 84.1511C67.6527 81.5677 71.0679 79.4987 74.8198 78.0842C78.4389 76.7215 82.3428 75.9735 86.4014 75.9735C90.4599 75.9735 94.3643 76.7195 97.983 78.0842C101.733 79.4968 105.15 81.5677 108.089 84.1511C109.652 85.5283 109.804 87.9098 108.429 89.472C107.054 91.0348 104.67 91.1868 103.108 89.8115C100.831 87.8094 98.202 86.2114 95.3308 85.1301C92.5725 84.0905 89.5637 83.5218 86.4034 83.5218C83.2431 83.5218 80.2343 84.0905 77.476 85.1301C74.6049 86.2113 71.9778 87.8075 69.6986 89.8115H69.6946Z" fill="#F43939"/>
<rect x="97" y="54" width="26.7742" height="26.7744" rx="13.3871" fill="white"/>
<path fill-rule="evenodd" clip-rule="evenodd" d="M104.707 60.2929C104.317 59.9024 103.683 59.9024 103.293 60.2929C102.902 60.6834 102.902 61.3166 103.293 61.7071L108.973 67.3872L103.293 73.0673C102.902 73.4578 102.902 74.091 103.293 74.4815C103.683 74.872 104.317 74.872 104.707 74.4815L110.387 68.8014L116.067 74.4813C116.458 74.8718 117.091 74.8718 117.481 74.4813C117.872 74.0908 117.872 73.4576 117.481 73.0671L111.801 67.3872L117.481 61.7073C117.872 61.3168 117.872 60.6836 117.481 60.2931C117.091 59.9026 116.458 59.9026 116.067 60.2931L110.387 65.973L104.707 60.2929Z" fill="#143F6B"/>
<defs>
<filter id="filter0_f_2336_20997" x="20.3094" y="106.09" width="137.426" height="61.6009" filterUnits="userSpaceOnUse" color-interpolation-filters="sRGB">
<feFlood flood-opacity="0" result="BackgroundImageFix"/>
<feBlend mode="normal" in="SourceGraphic" in2="BackgroundImageFix" result="shape"/>
<feGaussianBlur stdDeviation="10.3453" result="effect1_foregroundBlur_2336_20997"/>
</filter>
</defs>
</svg>
