<svg width="16" height="17" viewBox="0 0 16 17" fill="none" xmlns="http://www.w3.org/2000/svg">
<path fill-rule="evenodd" clip-rule="evenodd" d="M1.37012 7.58066C1.37012 4.08044 4.20761 1.24295 7.70783 1.24295C11.208 1.24295 14.0455 4.08044 14.0455 7.58066C14.0455 11.0809 11.208 13.9184 7.70783 13.9184C4.20761 13.9184 1.37012 11.0809 1.37012 7.58066ZM7.70783 0.24295C3.65532 0.24295 0.370117 3.52815 0.370117 7.58066C0.370117 11.6332 3.65532 14.9184 7.70783 14.9184C9.35966 14.9184 10.884 14.3726 12.1104 13.4514L14.7769 16.111C14.9724 16.3061 15.289 16.3056 15.484 16.1101C15.679 15.9146 15.6786 15.598 15.4831 15.403L12.8694 12.7961C14.2131 11.4661 15.0455 9.62062 15.0455 7.58066C15.0455 3.52815 11.7603 0.24295 7.70783 0.24295Z" fill="#383838"/>
</svg>
