<svg width="29" height="28" viewBox="0 0 29 28" fill="none" xmlns="http://www.w3.org/2000/svg">
<g id="Iconly/Light/Heart">
<rect x="1.15132" y="0.300031" width="27.4765" height="27.4" rx="13.7" fill="white"/>
<g id="Teeny icon / share">
<path id="Vector" d="M10.7578 13.9952C10.7578 15.172 9.80202 16.1271 8.62442 16.1271C7.44682 16.1271 6.49109 15.172 6.49109 13.9952C6.49109 12.8183 7.44682 11.8632 8.62442 11.8632C9.80202 11.8632 10.7578 12.8183 10.7578 13.9952ZM10.7578 13.9952L17.6911 10.2667M10.7578 13.9952L17.6911 17.7334M21.4244 8.66531C21.4244 9.84215 20.4687 10.7973 19.2911 10.7973C18.1135 10.7973 17.1578 9.84215 17.1578 8.66531C17.1578 7.48848 18.1135 6.53337 19.2911 6.53337C20.4687 6.53337 21.4244 7.48848 21.4244 8.66531ZM21.4244 19.325C21.4244 20.5018 20.4687 21.457 19.2911 21.457C18.1135 21.457 17.1578 20.5018 17.1578 19.325C17.1578 18.1482 18.1135 17.1931 19.2911 17.1931C20.4687 17.1931 21.4244 18.1482 21.4244 19.325Z" stroke="#6B6B6B" stroke-linecap="square"/>
</g>
<rect x="1.15132" y="0.300031" width="27.4765" height="27.4" rx="13.7" stroke="#D1D1D1" stroke-width="0.6"/>
</g>
</svg>
