<svg width="17" height="17" viewBox="0 0 17 17" fill="none" xmlns="http://www.w3.org/2000/svg">
<path fill-rule="evenodd" clip-rule="evenodd" d="M1 3.91667C1 1.72899 1.02342 1 3.91667 1C6.80991 1 6.83333 1.72899 6.83333 3.91667C6.83333 6.10434 6.84256 6.83333 3.91667 6.83333C0.990773 6.83333 1 6.10434 1 3.91667Z" fill="#F55353" stroke="#F55353" stroke-linecap="round" stroke-linejoin="round"/>
<path fill-rule="evenodd" clip-rule="evenodd" d="M10.1667 3.91667C10.1667 1.72899 10.1902 1 13.0834 1C15.9767 1 16.0001 1.72899 16.0001 3.91667C16.0001 6.10434 16.0093 6.83333 13.0834 6.83333C10.1575 6.83333 10.1667 6.10434 10.1667 3.91667Z" stroke="#F55353" stroke-linecap="round" stroke-linejoin="round"/>
<path fill-rule="evenodd" clip-rule="evenodd" d="M1 13.0833C1 10.8956 1.02342 10.1667 3.91667 10.1667C6.80991 10.1667 6.83333 10.8956 6.83333 13.0833C6.83333 15.271 6.84256 16 3.91667 16C0.990773 16 1 15.271 1 13.0833Z" stroke="#F55353" stroke-linecap="round" stroke-linejoin="round"/>
<path fill-rule="evenodd" clip-rule="evenodd" d="M10.1667 13.0833C10.1667 10.8956 10.1902 10.1667 13.0834 10.1667C15.9767 10.1667 16.0001 10.8956 16.0001 13.0833C16.0001 15.271 16.0093 16 13.0834 16C10.1575 16 10.1667 15.271 10.1667 13.0833Z" stroke="#F55353" stroke-linecap="round" stroke-linejoin="round"/>
</svg>
