<svg width="29" height="28" viewBox="0 0 29 28" fill="none" xmlns="http://www.w3.org/2000/svg">
<g id="Iconly/Light/Heart">
<rect x="0.3" y="0.3" width="27.4765" height="27.4" rx="13.7" fill="white"/>
<g id="Group">
<path id="Vector" d="M9.98539 22.8532C10.0835 22.951 10.2118 23 10.3399 23C10.4679 23 10.5962 22.9509 10.694 22.8532L16.7734 16.7742C16.7737 16.7738 16.7741 16.7734 16.7745 16.7731C16.7745 16.7731 16.7749 16.7727 16.7753 16.7723L20.8294 12.7178C20.8302 12.717 20.8315 12.7167 20.8322 12.7158C20.833 12.715 20.8334 12.7137 20.8343 12.713L22.8541 10.6931C22.9481 10.5991 23.0009 10.4719 23.0009 10.339C23.0009 10.2058 22.9478 10.0782 22.8541 9.98448L18.0156 5.14695C17.8201 4.95102 17.5028 4.95102 17.3068 5.14695L5.14679 17.3063C5.05281 17.4002 5 17.5275 5 17.6604C5 17.7936 5.05307 17.9212 5.14679 18.0149L9.98539 22.8532ZM17.6612 6.21043L21.7906 10.3392L20.4778 11.6521L18.6469 9.82116C18.4513 9.62561 18.1337 9.62561 17.938 9.82116C17.7421 10.0167 17.7421 10.3344 17.938 10.53L19.7685 12.3613L18.4487 13.6811L15.6821 10.9147C15.4865 10.7187 15.1689 10.7187 14.9732 10.9147C14.7773 11.1102 14.7773 11.4275 14.9732 11.6235L17.7397 14.3901L16.4202 15.71L14.5893 13.8797C14.3938 13.6844 14.0761 13.6842 13.8804 13.8801C13.6849 14.0757 13.6849 14.3933 13.8804 14.5888L15.711 16.4188L14.3904 17.7394L11.6241 14.9727C11.4286 14.7772 11.111 14.7772 10.9149 14.9727C10.7193 15.1683 10.7193 15.4859 10.9149 15.6816L13.6812 18.4486L12.3614 19.7684L10.5314 17.9379C10.3355 17.7423 10.0182 17.7423 9.82253 17.9379C9.62659 18.1338 9.62659 18.4511 9.82253 18.6468L11.6525 20.4773L10.34 21.7898L6.2103 17.661L17.6612 6.21043Z" fill="#828282"/>
</g>
<rect x="0.3" y="0.3" width="27.4765" height="27.4" rx="13.7" stroke="#D1D1D1" stroke-width="0.6"/>
</g>
</svg>
