<svg width="17" height="21" viewBox="0 0 17 21" fill="none" xmlns="http://www.w3.org/2000/svg">
<path fill-rule="evenodd" clip-rule="evenodd" d="M6.12093 2.16109C6.75173 1.53028 7.60728 1.1759 8.49937 1.1759C9.39146 1.1759 10.247 1.53028 10.8778 2.16109C11.5086 2.79189 11.863 3.64744 11.863 4.53953V5.13745H5.13574V4.53953C5.13574 3.64744 5.49012 2.79189 6.12093 2.16109ZM4.13574 6.13745V8.6469H5.13574V6.13745H11.863V8.6469H12.863V6.13745H15.2753L15.9495 19.8242H1.05047L1.72469 6.13745H4.13574ZM4.13574 5.13745V4.53953C4.13574 3.38222 4.59548 2.27232 5.41382 1.45398C6.23216 0.635641 7.34206 0.175903 8.49937 0.175903C9.65667 0.175903 10.7666 0.635641 11.5849 1.45398C12.4033 2.27232 12.863 3.38222 12.863 4.53953V5.13745H16.2272L16.9507 19.8242L17 20.8242H15.9987H1.00121H0L0.0492604 19.8242L0.772734 5.13745H4.13574Z" fill="white"/>
</svg>
