<svg width="16" height="18" viewBox="0 0 16 18" fill="none" xmlns="http://www.w3.org/2000/svg">
<path d="M9.20554 9.07295C9.20554 8.80731 9.33702 8.42262 9.50347 8.20876L14.4513 1.84735C14.6161 1.63585 14.5374 1.46402 14.269 1.46402H1.73182C1.46651 1.46402 1.38312 1.63315 1.54957 1.84735L6.49739 8.20876C6.66183 8.42027 6.79532 8.80529 6.79532 9.07399V16.4082C6.79532 16.6745 6.99271 16.8114 7.24288 16.7112L8.75813 16.1052C9.00528 16.0064 9.20569 15.7145 9.20569 15.4448L9.20554 9.07295ZM10.1696 9.07295V15.4449C10.1696 16.1086 9.72942 16.755 9.11575 17.0004L7.60086 17.6063C6.71678 17.9601 5.83106 17.3562 5.83106 16.4082V9.07399C5.83106 9.0212 5.76986 8.84399 5.7359 8.80061L0.788415 2.43921C0.132027 1.59552 0.659289 0.5 1.73163 0.5H14.2688C15.3472 0.5 15.8648 1.60023 15.2121 2.43921L10.2646 8.80061C10.2299 8.84466 10.1694 9.02086 10.1694 9.07299L10.1696 9.07295Z" fill="#383838"/>
</svg>
