<svg width="16" height="19" viewBox="0 0 16 19" fill="none" xmlns="http://www.w3.org/2000/svg">
<path fill-rule="evenodd" clip-rule="evenodd" d="M6.42992 1.83957C6.97492 1.30286 7.71569 1 8.48968 1C9.26367 1 10.0044 1.30286 10.5494 1.83957C11.0942 2.37602 11.3988 3.10195 11.3988 3.85725V4.37671H5.58059V3.85725C5.58059 3.10195 5.88519 2.37602 6.42992 1.83957ZM4.58059 5.37671V7.4263H5.58059V5.37671H11.3988V7.4263H12.3988V5.37671H14.3569L14.9387 17.0075H2.04126L2.62305 5.37671H4.58059ZM4.58059 4.37671V3.85725C4.58059 2.83175 4.99433 1.84983 5.72825 1.12706C6.46192 0.404556 7.45538 0 8.48968 0C9.52398 0 10.5174 0.404556 11.2511 1.12706C11.985 1.84983 12.3988 2.83175 12.3988 3.85725V4.37671H15.3082L15.94 17.0075L15.99 18.0075H14.9887H1.99124H0.98999L1.04001 17.0075L1.67182 4.37671H4.58059Z" fill="#6B6B6B"/>
</svg>
